<svg xmlns="http://www.w3.org/2000/svg" width="733.277" height="861" viewBox="0 0 733.277 861">
  <g id="Groupe_3" data-name="Groupe 3" transform="translate(-142.579 -110)">
    <path id="Tracé_1" data-name="Tracé 1" d="M722.893,887.842s88.985-317.55-218.417-401.456S1.579,26.842,1.579,26.842v861Z" transform="translate(141 83.158)" fill="#89fbab"/>
    <g id="Fichier_2" data-name="Fichier 2" transform="translate(213.811 729.425)">
      <g id="Calque_2" data-name="Calque 2" transform="translate(0 0)">
        <g id="Layer_1" data-name="Layer 1">
          <path id="Tracé_65" data-name="Tracé 65" d="M1453.229,1089.876c-.393-1.433-2.1-2.11-3.622-2.358a17.071,17.071,0,0,0-16.4,7.484,22.66,22.66,0,0,0,16.9-.993,7.1,7.1,0,0,0,2.364-1.573A2.821,2.821,0,0,0,1453.229,1089.876Z" transform="translate(-1159.967 -888.863)" fill="#ebebeb"/>
          <path id="Tracé_66" data-name="Tracé 66" d="M1355.127,1038.081l.09-.064c.658-3.063-.835-7.345-2.505-10.039a13.323,13.323,0,0,0-7.544-5.649c-1.1-.318-2.542-.383-3.144.548a2.545,2.545,0,0,0-.069,2.035C1343.585,1030.929,1348.973,1036.135,1355.127,1038.081Z" transform="translate(-1085.966 -835.543)" fill="#ebebeb"/>
          <path id="Tracé_67" data-name="Tracé 67" d="M1414.022,1180.03a5.771,5.771,0,0,0-2.846-1.126,12.7,12.7,0,0,0-8.147,1.915c-2.427,1.442-5.237,4.563-7.2,6.542,4.259-1.449,8.661-1.488,13.176-1.674a13,13,0,0,0,3.748-.474,3.465,3.465,0,0,0,2.44-2.555A2.984,2.984,0,0,0,1414.022,1180.03Z" transform="translate(-1129.714 -963.631)" fill="#ebebeb"/>
          <path id="Tracé_68" data-name="Tracé 68" d="M1326.841,1114.406a3.986,3.986,0,0,0-3.312-.548,3.447,3.447,0,0,0-2.223,3.142,5.544,5.544,0,0,0,1.453,3.691,17.409,17.409,0,0,0,3.121,2.688l7.746,5.67a28.434,28.434,0,0,0-4.446-12.2A8.637,8.637,0,0,0,1326.841,1114.406Z" transform="translate(-1069.396 -910.41)" fill="#ebebeb"/>
          <path id="Tracé_69" data-name="Tracé 69" d="M1440.726,987.659a31.449,31.449,0,0,0,5.91-10.6,7.607,7.607,0,0,0,.572-2.451,2.852,2.852,0,0,0-.953-2.263,3.117,3.117,0,0,0-3.024-.3,6.862,6.862,0,0,0-2.479,1.88,20.5,20.5,0,0,0-4.882,17.158C1437.048,990.791,1440.106,988.4,1440.726,987.659Z" transform="translate(-1161.873 -794.404)" fill="#ebebeb"/>
          <path id="Tracé_70" data-name="Tracé 70" d="M1370.453,1059.065a83.24,83.24,0,0,1,1.766-10c.9-3.877,1.971-7.719,3.153-11.525q1.876-6.036,4.114-11.963c1.422-3.771,2.946-7.508,4.6-11.191,1.436-3.194,2.967-6.358,4.692-9.422q.279-.495.572-.986c.208-.365-.381-.635-.595-.279-1.731,2.972-3.258,6.051-4.69,9.163-1.676,3.651-3.213,7.347-4.65,11.082q-2.273,5.918-4.194,11.947c-1.228,3.846-2.349,7.725-3.3,11.642a92.032,92.032,0,0,0-1.973,10.293c-.046.365-.128.862-.168,1.236Z" transform="translate(-1108.63 -820.355)" fill="#263238"/>
          <path id="Tracé_71" data-name="Tracé 71" d="M1412.551,1110.982a44.568,44.568,0,0,1,12.911-5.615q1.8-.466,3.623-.781c.414-.073.366-.7-.055-.632a46.125,46.125,0,0,0-13.176,4.381q-1.9.973-3.68,2.121c-.354.228.019.75.381.524Z" transform="translate(-1142.825 -902.439)" fill="#263238"/>
          <path id="Tracé_72" data-name="Tracé 72" d="M1385.321,1071.415a104.188,104.188,0,0,0-7.817-10.576c-.265-.316-.814.038-.547.365a104.121,104.121,0,0,1,7.817,10.574c.223.349.763,0,.547-.365Z" transform="translate(-1114.381 -867.098)" fill="#263238"/>
          <path id="Tracé_73" data-name="Tracé 73" d="M1354.945,1147.557a49.6,49.6,0,0,0-6.316-10.8q-.953-1.278-1.96-2.521c-.261-.32-.808.035-.545.365a59.726,59.726,0,0,1,6.749,10.056,33.937,33.937,0,0,1,1.449,3.12c.153.378.776.168.624-.214Z" transform="translate(-1089.427 -927.098)" fill="#263238"/>
          <path id="Tracé_74" data-name="Tracé 74" d="M1384.561,1203.378a39.658,39.658,0,0,1,13.1-6.623c.406-.12.191-.717-.223-.6a40.063,40.063,0,0,0-13.249,6.7c-.328.255.042.781.381.522Z" transform="translate(-1120.189 -977.804)" fill="#263238"/>
          <rect id="Rectangle_3" data-name="Rectangle 3" width="238.537" height="123.34" rx="21" transform="translate(260.178) rotate(90)" fill="#263238"/>
          <rect id="Rectangle_4" data-name="Rectangle 4" width="110.113" height="174.938" transform="translate(253.562 206.738) rotate(180)" fill="#fff"/>
          <path id="Tracé_75" data-name="Tracé 75" d="M924.814,303.76,829.37,455.051h95.444Z" transform="translate(-671.25 -248.313)" fill="#f5f5f5"/>
          <path id="Tracé_76" data-name="Tracé 76" d="M957.85,76.422h0a1.772,1.772,0,0,1,1.809-1.732h28.165a1.772,1.772,0,0,1,1.809,1.732h0a1.772,1.772,0,0,1-1.809,1.732H959.659a1.772,1.772,0,0,1-1.809-1.732Z" transform="translate(-775.235 -61.056)" fill="#465a63"/>
          <path id="Tracé_77" data-name="Tracé 77" d="M727.977,259.44H610.829a5.6,5.6,0,0,0-5.719,5.476v45.758a5.6,5.6,0,0,0,5.719,5.476H712.1l12.572,12.036V316.15h3.31a5.6,5.6,0,0,0,5.72-5.476V264.916A5.6,5.6,0,0,0,727.977,259.44Z" transform="translate(-489.745 -212.083)" fill="#4dd889"/>
          <path id="Tracé_78" data-name="Tracé 78" d="M665.833,409.95H768.907a1.423,1.423,0,0,0,1.451-1.391h0a1.421,1.421,0,0,0-1.451-1.389H665.833a1.423,1.423,0,0,0-1.453,1.389h0A1.423,1.423,0,0,0,665.833,409.95Z" transform="translate(-537.715 -332.847)" fill="#fff"/>
          <path id="Tracé_79" data-name="Tracé 79" d="M665.833,331.97H768.907a1.423,1.423,0,0,0,1.451-1.391h0a1.421,1.421,0,0,0-1.451-1.389H665.833a1.423,1.423,0,0,0-1.453,1.389h0A1.423,1.423,0,0,0,665.833,331.97Z" transform="translate(-537.715 -269.101)" fill="#fff"/>
          <path id="Tracé_80" data-name="Tracé 80" d="M665.833,487.93h86a1.423,1.423,0,0,0,1.453-1.391h0a1.423,1.423,0,0,0-1.453-1.389h-86a1.423,1.423,0,0,0-1.453,1.389h0A1.423,1.423,0,0,0,665.833,487.93Z" transform="translate(-537.715 -396.593)" fill="#fff"/>
          <path id="Tracé_81" data-name="Tracé 81" d="M923.224,691.2H809.07a5.6,5.6,0,0,0-5.72,5.476v44.436a5.6,5.6,0,0,0,5.72,5.476h3.1v11.757l12.278-11.757h98.776a5.6,5.6,0,0,0,5.72-5.476V696.676A5.6,5.6,0,0,0,923.224,691.2Z" transform="translate(-650.19 -565.032)" fill="#4dd889"/>
          <path id="Tracé_82" data-name="Tracé 82" d="M963.392,838.2H862.729a1.389,1.389,0,0,1-1.419-1.358h0a1.389,1.389,0,0,1,1.419-1.358H963.4a1.389,1.389,0,0,1,1.418,1.358h0a1.329,1.329,0,0,1-.419.964A1.451,1.451,0,0,1,963.392,838.2Z" transform="translate(-697.1 -682.976)" fill="#fff"/>
          <path id="Tracé_83" data-name="Tracé 83" d="M963.392,762.026H862.729a1.389,1.389,0,0,1-1.419-1.356h0a1.391,1.391,0,0,1,1.419-1.36H963.4a1.391,1.391,0,0,1,1.418,1.36h0a1.33,1.33,0,0,1-.419.962A1.452,1.452,0,0,1,963.392,762.026Z" transform="translate(-697.1 -620.709)" fill="#fff"/>
          <path id="Tracé_84" data-name="Tracé 84" d="M946.672,914.356H862.679A1.389,1.389,0,0,1,861.26,913h0a1.391,1.391,0,0,1,1.418-1.358h83.993A1.391,1.391,0,0,1,948.09,913h0A1.389,1.389,0,0,1,946.672,914.356Z" transform="translate(-697.06 -745.234)" fill="#fff"/>
          <path id="Tracé_85" data-name="Tracé 85" d="M530.57,583.65c.351-4.059,1.392-8.063,4.982-6.788,3.487,1.238.683,6.518.686,7.913Z" transform="translate(-429.416 -471.367)" fill="#fdcdc9"/>
          <path id="Tracé_86" data-name="Tracé 86" d="M400.75,625.863c15.673,24.007,24.708,12.389,31.324-14.439l-7.054-1.944c-3.174,10.77-7.3,35.768-21.01,8.128Z" transform="translate(-324.346 -498.229)" fill="#4dd889"/>
          <path id="Tracé_87" data-name="Tracé 87" d="M1780.265,515.664s16.669-59.412-21.479-70.652c-47.905-14.119-51.516,56.027-51.516,56.027Z" transform="translate(-1381.777 -362.247)" fill="#fdcdc9"/>
          <path id="Tracé_88" data-name="Tracé 88" d="M1752.584,289.9s-21.759,44.557,53.182,50.135l-1.373,15.45s7.435-4.64,7.931,2.446c.558,8.159-7.018,3.417-7.018,3.417s3.546,19.256,9.769,27.172c1.178-.995,37.177-65.848,4.147-67.421.057-1.875-1.716-14.809-19.759-20.743C1772.158,291.379,1767.745,312.648,1752.584,289.9Z" transform="translate(-1416.075 -236.983)" fill="#263238"/>
          <path id="Tracé_89" data-name="Tracé 89" d="M1947.516,614.872c-.763,2.643-.238,5.094,1.19,5.476s3.209-1.46,3.979-4.1.238-5.095-1.188-5.476S1948.279,612.236,1947.516,614.872Z" transform="translate(-1575.937 -499.247)" fill="#263238"/>
          <path id="Tracé_90" data-name="Tracé 90" d="M1789.356,569.129c-.763,2.643-.239,5.095,1.188,5.476s3.208-1.46,3.979-4.094.24-5.095-1.188-5.476S1790.126,566.486,1789.356,569.129Z" transform="translate(-1447.93 -461.855)" fill="#263238"/>
          <path id="Tracé_91" data-name="Tracé 91" d="M1800.3,670.614c3.184.508,13.788,2.373,20.75,5.659a1.082,1.082,0,0,1,.618,1.243c-.629,2.556-3.4,9.8-14.358,7.119-10.814-2.656-9.182-10.587-8.29-13.265A1.148,1.148,0,0,1,1800.3,670.614Z" transform="translate(-1455.51 -548.191)" fill="#ef808a"/>
          <path id="Tracé_92" data-name="Tracé 92" d="M1677.807,1103.484l-7.925-18.275c-1.066-7.413-1.983-15.446-2.669-22.169,26.441,1.75,49.791,3.176,68.812,2.254a179.661,179.661,0,0,0-1.125,19.217l4.114,23.449s-23.223,4.868-19.431-2.373c5.312-10.143,15.22-1.738,15.22-1.738l-7.5-18-2.513-13.538c-31.545,1.188-47.293-1.406-47.293-1.406l-.015,14.086,4.869,23s-26.979,4.662-18.255-5.365C1670.777,1094.949,1677.807,1103.484,1677.807,1103.484Z" transform="translate(-1345.429 -868.998)" fill="#263238"/>
          <path id="Tracé_93" data-name="Tracé 93" d="M1685.23,815.57c-1.085-20.459-1.235-31.657,3.7-55.25l73.5,12.745c-3.274,13.723-5.4,24.544-8.389,44.759C1735.016,818.753,1713.642,819.52,1685.23,815.57Z" transform="translate(-1363.437 -621.535)" fill="#4dd889"/>
          <path id="Tracé_94" data-name="Tracé 94" d="M2024.547,869.386c19,18.544-16.5,27.723-16.812,27.829a1.635,1.635,0,0,0-1.077,2.344,1.468,1.468,0,0,0,1.565.323,1.314,1.314,0,0,0-.214,1.519,1.465,1.465,0,0,0,1.565.323,1.31,1.31,0,0,0-.214,1.517,1.465,1.465,0,0,0,1.565.323,1.313,1.313,0,0,0-.214,1.519c.439.6,2.669-.164,2.669-.164,35.755-14.4,25.94-31.819,16.968-40.888l-5.056.509Z" transform="translate(-1623.918 -706.314)" fill="#fdcdc9"/>
          <path id="Tracé_95" data-name="Tracé 95" d="M2078.74,838.058l2.679-7.878a49.122,49.122,0,0,1,7.436,6.175l-3.308,3.056-2.494,2.3A43.612,43.612,0,0,0,2078.74,838.058Z" transform="translate(-1682.426 -678.643)" fill="#4dd889"/>
          <path id="Tracé_96" data-name="Tracé 96" d="M1564.782,600.878l-2.532-3.853c-23.7,6.913-12.1-16.837-6.543-36.107.338-1.166.191-2.008-1.014-2.276a1.1,1.1,0,0,0-1.235.635,1.364,1.364,0,0,0-.921-1.252,1.43,1.43,0,0,0-1.377.779,1.371,1.371,0,0,0-.921-1.252,1.437,1.437,0,0,0-1.378.779,1.366,1.366,0,0,0-.921-1.252c-.747-.153-1.567.681-1.832,1.862h-.011c-19.181,53.74,2.547,51.157,17.1,46.835Z" transform="translate(-1245.224 -455.378)" fill="#fdcdc9"/>
          <path id="Tracé_97" data-name="Tracé 97" d="M1671.295,760.36l-1.375,9.322a49.26,49.26,0,0,1-6.146,2.294l-.953-8.751A72.385,72.385,0,0,0,1671.295,760.36Z" transform="translate(-1345.801 -621.568)" fill="#4dd889"/>
          <path id="Tracé_98" data-name="Tracé 98" d="M380.81,952.569l9.689,33.355-1.409,24.12s7.3,11.317,11.18,7.727c4.385-4.039-6.61-9.452-6.61-9.452l5.557-22.134-3.582-33.754Z" transform="translate(-308.208 -778.578)" fill="#fdcdc9"/>
          <path id="Tracé_99" data-name="Tracé 99" d="M421.618,1260.261l-.618,7.108,1.556.183.7-2.19a10.954,10.954,0,0,0,7.9,4.686c11.439,1.515,1.312-8.762-4.957-11.527,0,0,8.579,4.292,5.413,6.476C426.632,1268.432,421.618,1260.261,421.618,1260.261Z" transform="translate(-340.736 -1028.796)" fill="#263238"/>
          <path id="Tracé_100" data-name="Tracé 100" d="M217.823,953.87l6.793,31.482L207.3,998.8s-4.1,12.31,1.23,13.108c5.994.9,3.405-10.144,3.136-10.97l22.5-12.484-1.544-33.895Z" transform="translate(-166.563 -779.755)" fill="#fdcdc9"/>
          <path id="Tracé_101" data-name="Tracé 101" d="M188.044,1200,182,1204.233l.873,1.24,2.185-.94a10.045,10.045,0,0,0,1.485,8.762c6.318,9.2,7.794-4.841,5.863-11.155,0,0,2.244,8.986-1.571,8.15C184.873,1208.975,188.044,1200,188.044,1200Z" transform="translate(-147.301 -980.958)" fill="#263238"/>
          <path id="Tracé_102" data-name="Tracé 102" d="M258.64,586.99l2.351,11.315,9.264,12.52,3.573-14.88-2.351-11.315Z" transform="translate(-209.33 -477.915)" fill="#fdcdc9"/>
          <path id="Tracé_103" data-name="Tracé 103" d="M271.507,584.64,258.67,587l1.739,8.369a28.073,28.073,0,0,0,7.393-.858,26.637,26.637,0,0,0,5.338-1.982Z" transform="translate(-209.354 -477.923)" fill="#f4f4f4"/>
          <path id="Tracé_104" data-name="Tracé 104" d="M209.468,648.98l-14.488,7.1,9.454,31.887-.917,16.843L249.8,696.22l-8.152-15.092-4.179-33.159L222.3,646.62l-3.573,14.88Z" transform="translate(-157.807 -528.589)" fill="#4dd889"/>
          <path id="Tracé_105" data-name="Tracé 105" d="M272.484,646.62l2.961.265L270.1,667.237,256.98,650.362l2.667-1.382,9.264,12.52Z" transform="translate(-207.986 -528.589)" fill="#f4f4f4"/>
          <path id="Tracé_106" data-name="Tracé 106" d="M259.607,659.55l-2.677,1.311.969,10.246,3.58-2.546,4.7-.128Z" transform="translate(-207.946 -539.159)" fill="#f4f4f4"/>
          <path id="Tracé_107" data-name="Tracé 107" d="M327.544,646.62l2.961.265,3.247,9.839-4.335-1.093-4.406,1.546Z" transform="translate(-263.046 -528.589)" fill="#f4f4f4"/>
          <path id="Tracé_108" data-name="Tracé 108" d="M299.429,937.663l-42.675,8.846-2.284-17.562,40.311-7.407Z" transform="translate(-205.955 -753.327)" fill="#263238"/>
          <g id="Groupe_2" data-name="Groupe 2" transform="translate(48.525 168.213)" opacity="0.05">
            <path id="Tracé_109" data-name="Tracé 109" d="M254.52,929.024l.62,4.759L295.243,923l-.421-1.46Z" transform="translate(-254.52 -921.54)"/>
          </g>
          <path id="Tracé_110" data-name="Tracé 110" d="M32.617,389.9s-15.557-13.767-27.73-3.085c-16.118,14.152,17.86,37.841-4.886,45,13.639,12.429,33.055-2.285,19.942-20.637C6.938,392.977,18.364,380.97,32.617,389.9Z" transform="translate(0 -312.885)" fill="#263238"/>
          <path id="Tracé_111" data-name="Tracé 111" d="M177.488,351.559c4.475,14.6-.265,28.525-13.536,32.889s-28.788-3.218-33.936-17.173,1.438-28.8,14.709-33.167C167.755,326.537,173.139,337.365,177.488,351.559Z" transform="translate(-103.811 -271.089)" fill="#fdcdc9"/>
          <path id="Tracé_112" data-name="Tracé 112" d="M289.889,536.464a93.277,93.277,0,0,0-12.2,3.016.511.511,0,0,0-.3.26.477.477,0,0,0-.014.386,6.542,6.542,0,0,0,8.122,4.083c5.083-1.2,5.108-5.774,4.97-7.3a.491.491,0,0,0-.192-.338.535.535,0,0,0-.386-.106Z" transform="translate(-224.465 -438.538)" fill="#ef808a"/>
          <path id="Tracé_113" data-name="Tracé 113" d="M235.012,475.563c.524,1.977.156,3.771-.824,4.016s-2.2-1.17-2.722-3.145-.156-3.771.822-4.016S234.488,473.6,235.012,475.563Z" transform="translate(-187.144 -386.162)" fill="#263238"/>
          <path id="Tracé_114" data-name="Tracé 114" d="M351.921,445.783c.524,1.977.156,3.771-.824,4.016s-2.2-1.17-2.724-3.147-.156-3.769.824-4.016S351.4,443.815,351.921,445.783Z" transform="translate(-281.761 -361.817)" fill="#263238"/>
          <path id="Tracé_115" data-name="Tracé 115" d="M103.226,319.587s22.552-1.143,40.487-9.127c-6.015-16.257-26.4-24.02-46.37-9.4-22.116,16.191-2.067,43.066,10.957,49.774a52.2,52.2,0,0,0-.381-16s-4.658,3.684-5.512-1.564c-.612-3.753,4.385-2.858,4.385-2.858Z" transform="translate(-70.779 -239.779)" fill="#263238"/>
          <path id="Tracé_116" data-name="Tracé 116" d="M237.338,922.93c4.208.606,8.31,1.867,6.743,5.211-1.525,3.247-6.839.219-8.291.13Z" transform="translate(-190.836 -754.463)" fill="#fdcdc9"/>
          <path id="Tracé_117" data-name="Tracé 117" d="M125.155,698.44c-27.5,27.3-17.54,41.5,7.937,47.2l2.5-6.615c-13.225-4.092-33.461-8.021-4.993-36.454Z" transform="translate(-87.978 -570.95)" fill="#4dd889"/>
          <path id="Tracé_118" data-name="Tracé 118" d="M513.874,1047.228c.469-1.714,2.515-2.524,4.341-2.818,7.388-1.194,15.824,2.765,19.6,8.959a27.113,27.113,0,0,1-20.209-1.188,8.511,8.511,0,0,1-2.827-1.88A3.392,3.392,0,0,1,513.874,1047.228Z" transform="translate(-415.829 -853.595)" fill="#4dd889"/>
          <path id="Tracé_119" data-name="Tracé 119" d="M664.154,985.335l-.109-.077c-.785-3.662,1-8.782,3-11.994a15.927,15.927,0,0,1,9.02-6.754c1.315-.382,3.039-.458,3.76.661a3.033,3.033,0,0,1,.082,2.433C677.956,976.785,671.51,983,664.154,985.335Z" transform="translate(-537.291 -789.88)" fill="#4dd889"/>
          <path id="Tracé_120" data-name="Tracé 120" d="M564.342,1155.031a6.925,6.925,0,0,1,3.405-1.346,15.174,15.174,0,0,1,9.74,2.289c2.9,1.725,6.263,5.447,8.61,7.821-5.094-1.732-10.358-1.778-15.757-2.008a15.421,15.421,0,0,1-4.48-.568,4.146,4.146,0,0,1-2.921-3.043A3.582,3.582,0,0,1,564.342,1155.031Z" transform="translate(-455.593 -942.999)" fill="#4dd889"/>
          <path id="Tracé_121" data-name="Tracé 121" d="M704.46,1076.561a4.756,4.756,0,0,1,3.962-.65,4.139,4.139,0,0,1,2.658,3.755,6.623,6.623,0,0,1-1.737,4.414,20.867,20.867,0,0,1-3.733,3.216l-9.26,6.779a34.187,34.187,0,0,1,5.315-14.6A10.38,10.38,0,0,1,704.46,1076.561Z" transform="translate(-563.59 -879.361)" fill="#4dd889"/>
          <path id="Tracé_122" data-name="Tracé 122" d="M571.73,925.014a37.789,37.789,0,0,1-7.075-12.679,8.855,8.855,0,0,1-.675-2.931,3.431,3.431,0,0,1,1.144-2.707,3.757,3.757,0,0,1,3.622-.365,8.2,8.2,0,0,1,2.968,2.254,24.518,24.518,0,0,1,5.84,20.53C576.13,928.756,572.471,925.9,571.73,925.014Z" transform="translate(-456.456 -740.653)" fill="#4dd889"/>
          <path id="Tracé_123" data-name="Tracé 123" d="M615.334,1010.392a99.725,99.725,0,0,0-2.111-11.952c-1.073-4.636-2.358-9.229-3.771-13.781q-2.242-7.219-4.921-14.307c-1.7-4.509-3.52-8.977-5.5-13.38-1.716-3.822-3.55-7.6-5.611-11.268-.223-.394-.448-.789-.675-1.179-.25-.427.461-.758.709-.334,2.07,3.554,3.9,7.236,5.609,10.952,2,4.357,3.842,8.784,5.559,13.25q2.722,7.071,5.027,14.285c1.468,4.6,2.806,9.238,3.945,13.922a110.1,110.1,0,0,1,2.36,12.306c.055.445.153,1.031.191,1.479Z" transform="translate(-479.697 -771.681)" fill="#263238"/>
          <path id="Tracé_124" data-name="Tracé 124" d="M576.441,1072.46A53.313,53.313,0,0,0,561,1065.747q-2.147-.547-4.337-.935c-.5-.086-.439-.841.065-.754a55.1,55.1,0,0,1,15.755,5.241q2.265,1.164,4.4,2.535c.423.272-.023.9-.446.626Z" transform="translate(-450.255 -869.824)" fill="#263238"/>
          <path id="Tracé_125" data-name="Tracé 125" d="M654.012,1025.149a124.376,124.376,0,0,1,9.342-12.644c.316-.38.972.044.654.425a124.416,124.416,0,0,0-9.342,12.646c-.265.416-.919-.013-.652-.427Z" transform="translate(-529.274 -827.565)" fill="#263238"/>
          <path id="Tracé_126" data-name="Tracé 126" d="M688.147,1116.2a58.946,58.946,0,0,1,7.552-12.911q1.144-1.533,2.343-3.015c.313-.382.969.042.654.427a71.454,71.454,0,0,0-8.072,12.024c-.637,1.218-1.22,2.459-1.731,3.729-.191.454-.928.2-.745-.254Z" transform="translate(-556.928 -899.31)" fill="#263238"/>
          <path id="Tracé_127" data-name="Tracé 127" d="M627.867,1182.948a47.407,47.407,0,0,0-15.662-7.92c-.486-.144-.221-.858.265-.714a48.01,48.01,0,0,1,15.843,8.008C628.7,1182.629,628.261,1183.257,627.867,1182.948Z" transform="translate(-495.278 -959.945)" fill="#263238"/>
        </g>
      </g>
    </g>
  </g>
</svg>
